# xmcd
#
# Track frame offsets:
#	160
#	19575
#	37485
#	56785
#	73030
#	93835
#	108985
#	124365
#	142520
#	159420
#	174730
#	192455
#	207960
#	224970
#	243505
#	260025
#	275505
#
# Disc length: 3877 seconds
# Revision: 0
# Processed by: cddbd v1.5.2PL0 Copyright (c) Steve Scherf et al.
# Submitted via: dBpowerAMP V12.0
#
DISCID=0e0f2311
DTITLE=Лариса Долина - Погода В Доме
DYEAR=1997
DGENRE=World
TTITLE0=Погода В Доме
TTITLE1=Хочу Быть Любимой
TTITLE2=Просто Танго
TTITLE3=Увижу, Узнаю
TTITLE4=Група Крови
TTITLE5=Обижаюсь
TTITLE6=Диета
TTITLE7=Москвичка
TTITLE8=Проехали
TTITLE9=Мальчик Мой
TTITLE10=Гости
TTITLE11=Ресторан
TTITLE12=Ты Снишься Мне
TTITLE13=Ревнуй
TTITLE14=Ноль Градусов
TTITLE15=До Свиданья
TTITLE16=Третий Звонок
EXTD=
EXTT0=
EXTT1=
EXTT2=
EXTT3=
EXTT4=
EXTT5=
EXTT6=
EXTT7=
EXTT8=
EXTT9=
EXTT10=
EXTT11=
EXTT12=
EXTT13=
EXTT14=
EXTT15=
EXTT16=
PLAYORDER=
